<svg xmlns="http://www.w3.org/2000/svg" xmlns:xlink="http://www.w3.org/1999/xlink" width="15" height="16.5" preserveAspectRatio="xMidYMid meet" viewBox="0 -256 1536 1792" style="-ms-transform: rotate(360deg); -webkit-transform: rotate(360deg); transform: rotate(360deg); vertical-align: -0.143em;">
  <path d="M1184 640q0 26-19 45l-544 544q-19 19-45 19t-45-19-19-45V896H64q-26 0-45-19T0 832V448q0-26 19-45t45-19h448V96q0-26 19-45t45-19 45 19l544 544q19 19 19 45zm352-352v704q0 119-84.5 203.5T1248 1280H928q-13 0-22.5-9.5T896 1248q0-4-1-20t-.5-26.5 3-23.5 10-19.5 20.5-6.5h320q66 0 113-47t47-113V288q0-66-47-113t-113-47H936l-11.5-1-11.5-3-8-5.5-7-9-2-13.5q0-4-1-20t-.5-26.5 3-23.5 10-19.5T928 0h320q119 0 203.5 84.5T1536 288z"
    fill="#582c7e"></path>
  <path fill="rgba(0, 0, 0, 0)" d="M0 0h1536v1280H0z"></path>
</svg>